<svg width="283" height="206" viewBox="0 0 283 206" fill="none" xmlns="http://www.w3.org/2000/svg">
<path d="M25.9859 53.5808L35.3132 185.588C35.4808 187.952 36.4843 190.171 38.1331 191.822C39.7818 193.474 41.9608 194.443 44.2563 194.545L250.322 203.695C252.627 203.796 254.887 203.017 256.67 201.507C258.453 199.997 259.635 197.862 259.988 195.51L282.884 42.9127C283.097 41.4965 283.002 40.0492 282.607 38.6754C282.211 37.3016 281.524 36.0358 280.596 34.9695C279.668 33.9031 278.522 33.0629 277.241 32.5096C275.96 31.9562 274.575 31.7036 273.188 31.77L34.8835 43.2205C33.6347 43.2818 32.4104 43.6005 31.2828 44.1577C30.1551 44.7149 29.147 45.4994 28.3178 46.4649C27.4886 47.4304 26.8551 48.5574 26.4546 49.7795C26.0541 51.0016 25.8947 52.2941 25.9859 53.5808Z" fill="#FAF7F5"/>
<path d="M195.945 41.0788C203.68 38.6095 208.047 30.2554 205.697 22.4194C203.348 14.5834 195.173 10.2328 187.438 12.7021C179.702 15.1713 175.336 23.5254 177.685 31.3615C180.035 39.1975 188.21 43.5481 195.945 41.0788Z" fill="#FAF7F5"/>
<path d="M39.0744 126.061C36.0412 138.122 24.9899 145.592 14.4139 142.754C3.83784 139.916 -2.26916 127.829 0.764118 115.774C3.7974 103.718 14.8486 96.2425 25.4247 99.0804C36.0007 101.918 42.1178 114 39.0744 126.061Z" fill="#FAF7F5"/>
<path d="M254.443 128.277C253.992 128.279 253.545 128.18 253.134 127.986C252.724 127.792 252.359 127.509 252.065 127.155C251.771 126.801 251.555 126.385 251.433 125.937C251.31 125.489 251.283 125.018 251.354 124.558L265.414 30.8095C265.667 29.1224 265.554 27.3982 265.083 25.7618C264.611 24.1253 263.793 22.6175 262.688 21.3473C261.582 20.0772 260.217 19.0765 258.69 18.4178C257.164 17.759 255.515 17.4586 253.862 17.5383L212.66 19.5207C212.25 19.5402 211.84 19.4762 211.454 19.3324C211.068 19.1885 210.713 18.9676 210.41 18.6823C210.107 18.397 209.861 18.0528 209.687 17.6695C209.512 17.2861 209.413 16.8711 209.394 16.4481C209.375 16.025 209.437 15.6023 209.576 15.204C209.716 14.8057 209.93 14.4397 210.206 14.1267C210.483 13.8138 210.816 13.5601 211.188 13.3802C211.559 13.2003 211.962 13.0976 212.372 13.0781L253.574 11.101C256.154 10.9763 258.728 11.4453 261.111 12.474C263.493 13.5027 265.624 15.0653 267.349 17.0487C269.075 19.0321 270.351 21.3866 271.085 23.9416C271.82 26.4966 271.994 29.1882 271.596 31.8215L257.527 125.549C257.414 126.309 257.04 127.002 256.475 127.502C255.909 128.003 255.188 128.277 254.443 128.277Z" fill="#F6A6BF"/>
<path d="M208.149 191.598H208.013L35.0348 183.913C30.7691 183.723 26.7198 181.922 23.6562 178.853C20.5926 175.785 18.7283 171.661 18.4175 167.267L17.2952 151.325C17.2504 150.895 17.29 150.46 17.4116 150.046C17.5332 149.632 17.7343 149.247 18.0029 148.915C18.2715 148.583 18.6022 148.31 18.9752 148.113C19.3482 147.915 19.7559 147.797 20.174 147.765C20.5921 147.734 21.0121 147.79 21.409 147.929C21.8058 148.069 22.1714 148.289 22.484 148.577C22.7965 148.866 23.0496 149.216 23.2282 149.607C23.4068 149.999 23.5073 150.423 23.5235 150.856L24.6509 166.777C24.8481 169.594 26.0425 172.239 28.0066 174.207C29.9707 176.175 32.5675 177.329 35.3028 177.45L208.286 185.15C208.696 185.159 209.101 185.251 209.476 185.421C209.852 185.591 210.192 185.836 210.476 186.142C210.76 186.448 210.983 186.808 211.132 187.203C211.281 187.597 211.353 188.018 211.344 188.441C211.336 188.865 211.246 189.282 211.081 189.67C210.916 190.058 210.679 190.408 210.383 190.701C210.087 190.994 209.737 191.224 209.355 191.378C208.973 191.532 208.565 191.606 208.154 191.598H208.149Z" fill="#F6A6BF"/>
<path d="M15.489 84.7763C14.7006 84.7757 13.9417 84.4671 13.3648 83.9126C12.788 83.358 12.4361 82.5986 12.3799 81.7872L9.7763 44.9629C9.60774 42.5701 9.90518 40.1667 10.6511 37.8944C11.397 35.6221 12.5762 33.527 14.1193 31.7324C15.6624 29.9379 17.538 28.4804 19.6357 27.4457C21.7333 26.4111 24.0105 25.8203 26.333 25.7082L165.818 19.0101C166.236 18.9759 166.656 19.0287 167.053 19.1653C167.45 19.3019 167.817 19.5195 168.131 19.8052C168.445 20.0909 168.7 20.4388 168.882 20.8283C169.063 21.2178 169.166 21.6409 169.186 22.0725C169.206 22.5041 169.141 22.9354 168.996 23.3407C168.851 23.7461 168.628 24.1172 168.342 24.432C168.055 24.7468 167.71 24.9989 167.327 25.1734C166.943 25.3478 166.53 25.441 166.112 25.4474L26.6211 32.1508C25.1318 32.2213 23.6713 32.599 22.3258 33.2617C20.9804 33.9245 19.7773 34.8587 18.7876 36.0093C17.7979 37.1598 17.0418 38.5034 16.5638 39.9606C16.0858 41.4178 15.8957 42.9591 16.0046 44.4934L18.6031 81.3177C18.663 82.1698 18.3926 83.0116 17.8513 83.6582C17.3101 84.3047 16.5422 84.7031 15.7165 84.7659L15.489 84.7763Z" fill="#F6A6BF"/>
<path d="M189.822 30.6996C186.642 30.7147 183.54 29.6793 180.97 27.7448C178.4 25.8104 176.498 23.0783 175.541 19.9481C174.717 17.0195 174.743 13.9059 175.616 10.9924C176.489 8.07898 178.17 5.49345 180.452 3.55565C182.734 1.61785 185.516 0.412785 188.455 0.0895156C191.394 -0.233754 194.36 0.338947 196.986 1.73679C198.733 2.65681 200.283 3.92911 201.545 5.47838C202.806 7.02765 203.754 8.8224 204.332 10.7564C205.473 14.6766 205.06 18.9037 203.184 22.5104C201.309 26.1172 198.123 28.809 194.327 29.9953C192.868 30.4605 191.35 30.6978 189.822 30.6996ZM190.085 6.44741C189.177 6.44866 188.273 6.5911 187.406 6.86996C185.186 7.54376 183.317 9.099 182.208 11.1941C181.099 13.2892 180.841 15.7529 181.491 18.044C182.241 20.2771 183.802 22.1221 185.845 23.1893C187.889 24.2566 190.254 24.4626 192.442 23.7638C194.63 23.065 196.469 21.5162 197.57 19.4443C198.672 17.3725 198.95 14.94 198.346 12.6604C198.016 11.541 197.47 10.502 196.741 9.60561C196.012 8.70921 195.115 7.97391 194.104 7.44379C192.86 6.78848 191.483 6.44701 190.085 6.44741Z" fill="#F6A6BF"/>
<path d="M22.9671 136.609C21.3174 136.609 19.6745 136.392 18.0784 135.962C15.3356 135.21 12.7788 133.866 10.5773 132.017C8.37585 130.169 6.57989 127.86 5.30831 125.242C2.65423 119.785 2.01135 113.52 3.49925 107.61C4.98715 101.701 8.50453 96.5511 13.3971 93.1178C15.7459 91.4761 18.4055 90.3673 21.2003 89.8646C23.995 89.3619 26.8614 89.4768 29.6099 90.2017C40.8482 93.2273 47.3799 105.94 44.195 118.554C41.4549 129.337 32.5168 136.609 22.9671 136.609ZM24.7112 96.0287C21.9075 96.0519 19.1722 96.9244 16.8449 98.5379C13.2484 101.096 10.6633 104.903 9.56162 109.264C8.45992 113.626 8.9151 118.251 10.844 122.294C11.7192 124.107 12.9564 125.708 14.4743 126.992C15.9922 128.276 17.7563 129.214 19.6507 129.744C27.5372 131.867 35.8282 126.123 38.1486 116.953C40.464 107.777 35.9343 98.59 28.0377 96.4721C26.9516 96.179 25.8338 96.0299 24.7112 96.0287Z" fill="#F6A6BF"/>
<path d="M272.348 180.611C272.272 194.695 262.186 206.073 249.821 206C237.455 205.927 227.496 194.445 227.577 180.35C227.658 166.254 237.743 154.893 250.104 154.96C262.464 155.028 272.424 166.52 272.348 180.611Z" fill="#FAF7F5"/>
<path d="M249.002 197.069H248.88C245.729 197.035 242.62 196.311 239.759 194.946C236.898 193.581 234.35 191.606 232.283 189.15C227.916 184.039 225.55 177.434 225.645 170.621C225.721 156.16 236.211 144.449 249.042 144.449H249.168C252.319 144.483 255.428 145.207 258.288 146.572C261.148 147.937 263.695 149.912 265.76 152.368C270.128 157.479 272.496 164.084 272.403 170.897C272.322 185.353 261.837 197.069 249.002 197.069ZM249.042 150.886C239.639 150.886 231.95 159.754 231.889 170.652C231.808 175.867 233.61 180.926 236.944 184.847C238.431 186.628 240.268 188.064 242.332 189.06C244.397 190.055 246.642 190.587 248.921 190.621H249.007C258.415 190.621 266.099 181.753 266.16 170.855C266.243 165.64 264.44 160.58 261.104 156.661C259.617 154.881 257.781 153.447 255.718 152.453C253.654 151.458 251.41 150.926 249.133 150.891L249.042 150.886Z" fill="#F6A6BF"/>
</svg>
