<svg width="60" height="60" viewBox="0 0 60 60" fill="none" xmlns="http://www.w3.org/2000/svg">
<path d="M33.5742 0.164032C31.9219 0.550751 30.8906 1.10153 29.7773 2.21481C28.5352 3.44528 27.7266 4.86325 27.293 6.56247C27.0703 7.45309 27.0938 9.78513 27.3281 10.8984C27.4336 11.3789 27.5625 12.082 27.5977 12.4453L27.6797 13.1015L27.1172 13.1836C23.8477 13.6406 20.7539 14.7656 18.293 16.4062C17.0977 17.2031 15.3516 18.8086 14.6953 19.6992C14.4023 20.0976 14.2266 20.25 14.1328 20.1679C13.8164 19.8984 12.082 19.3242 11.0977 19.1367C9.83203 18.914 9.38672 18.9726 8.64844 19.4414C8.02734 19.8398 7.48828 20.789 7.25391 21.8906C7.03125 22.9687 7.18359 26.3203 7.54688 28.3125C7.81641 29.789 8.60156 33.0937 8.87109 33.8672C8.96484 34.1133 8.84766 34.4297 8.20312 35.6836L7.44141 37.207L6.79688 37.125C5.94141 37.0312 3.82031 37.0078 3.57422 37.1015C3.28125 37.2187 3.02344 37.8281 3.10547 38.2031C3.24609 38.8476 3.50391 38.9414 5.16797 39.0351C6.01172 39.082 6.72656 39.1406 6.75 39.1758C6.78516 39.1992 6.75 39.375 6.67969 39.5625C6.46875 40.0898 6.09375 42.5039 6.09375 43.2656C6.09375 43.9453 6.08203 43.957 5.71875 44.0859C5.50781 44.1679 4.875 44.4492 4.32422 44.7187C3.31641 45.2343 3.04688 45.5156 3.04688 46.0664C3.04688 46.3711 3.65625 46.9922 3.96094 46.9922C4.10156 46.9922 4.64062 46.7812 5.16797 46.5234C6.19922 46.0312 6.31641 46.0429 6.32812 46.6406C6.33984 46.8047 6.53906 47.5078 6.77344 48.2226L7.20703 49.5L6.19922 50.5078C5.48438 51.2226 5.09766 51.7148 4.82812 52.2773C3.39844 55.2422 4.11328 57.5976 6.85547 58.957C8.30859 59.6836 9.67969 59.9179 12.2461 59.9297C14.707 59.9297 15.4922 59.7656 17.3203 58.875L18.4219 58.3476L19.7812 58.6992C23.2852 59.6015 26.0156 59.9297 30.0586 59.9297C34.1016 59.9297 36.832 59.6015 40.3359 58.6992L41.6953 58.3476L42.7969 58.875C44.625 59.7656 45.4102 59.9297 47.8711 59.9297C50.4258 59.9179 51.75 59.6836 53.2383 58.9687C55.9922 57.6211 56.7188 55.2539 55.2891 52.2773C55.0195 51.7148 54.6328 51.2226 53.9062 50.4961L52.8867 49.4765L53.1211 48.914C53.2383 48.5976 53.4727 47.8476 53.625 47.2383C53.7773 46.6289 53.9297 46.1133 53.9531 46.0898C53.9766 46.0547 54.4219 46.2539 54.9492 46.5117C55.4648 46.7812 56.0039 46.9922 56.1445 46.9922C56.4492 46.9922 57.0703 46.3828 57.0703 46.0664C57.0703 45.5156 56.8008 45.2343 55.793 44.7187C55.2422 44.4492 54.6094 44.1679 54.4102 44.0859C54.0352 43.957 54.0234 43.9453 54.0234 43.2656C54.0234 42.5039 53.6484 40.0898 53.4375 39.5625C53.3672 39.375 53.332 39.1992 53.3672 39.1758C53.3906 39.1406 54.1055 39.082 54.9492 39.0351C56.6133 38.9414 56.8711 38.8476 57.0117 38.2031C57.0938 37.8281 56.8359 37.2187 56.543 37.1015C56.2969 37.0078 54.1758 37.0312 53.3203 37.125L52.6758 37.207L51.9258 35.6953L51.1875 34.1836L51.6094 32.6484C53.4141 26.039 53.5195 21.3984 51.8672 19.7461C51.1875 19.0664 50.543 18.9023 49.3242 19.0898C48.3398 19.2422 47.1094 19.6172 46.3242 20.0156L45.832 20.2734L45.4219 19.6992C44.7539 18.7968 42.9844 17.1797 41.8008 16.4062C39.7969 15.0703 37.1484 13.9687 34.7812 13.5L33.6914 13.2773L33.5625 12C33.4805 11.2968 33.3398 10.2773 33.2227 9.72653C33 8.62497 33.0469 7.96872 33.3867 7.28903C33.6914 6.67966 34.3477 6.12888 34.8633 6.02341C35.5898 5.8945 36.8438 6.33981 38.0625 7.17184C38.8125 7.68747 39.3516 7.87497 40.0898 7.87497C42.3164 7.87497 43.6992 5.58981 42.7148 3.56247C42.4688 3.05856 42.2109 2.77731 41.6133 2.332C40.6172 1.59372 38.7422 0.656219 37.6172 0.351532C36.4805 0.0351257 34.5234 -0.0586243 33.5742 0.164032ZM37.4883 2.41403C38.5078 2.75388 40.125 3.6445 40.6992 4.18356C41.0859 4.57028 41.1211 5.10934 40.7695 5.55466C40.418 5.99997 39.8203 5.97653 39.1289 5.47263C38.332 4.91013 36.832 4.24216 36.0352 4.08981C34.1953 3.74997 32.6367 4.51169 31.7109 6.19919C31.0195 7.47653 30.9258 8.39059 31.2773 10.2539C31.4062 10.8984 31.5469 11.7773 31.582 12.2109L31.6641 13.0078H30.668H29.6719L29.6016 12.3281C29.5547 11.9648 29.4141 11.0742 29.2734 10.3711C28.8516 8.08591 29.168 6.32809 30.3047 4.65231C31.9453 2.24997 34.5469 1.44138 37.4883 2.41403ZM32.7305 15.1758C37.2422 15.7617 41.1797 17.7422 43.6055 20.6367L44.0625 21.1875L43.207 21.6914C42.75 21.9609 41.7422 22.6054 40.9805 23.1093L39.5977 24.0351L38.7539 23.6953C35.8008 22.4765 32.8008 21.9609 29.2969 22.0664C26.4375 22.1484 24.0117 22.6406 21.5508 23.625L20.5312 24.0234L19.4414 23.2851C18.832 22.875 17.8242 22.2304 17.2031 21.8554L16.0664 21.1758L16.4062 20.7539C17.3086 19.6172 18.7266 18.4453 20.2734 17.5312C23.707 15.4922 28.4062 14.6133 32.7305 15.1758ZM11.2148 21.2109C11.7539 21.3398 12.5156 21.5859 12.9141 21.7734C14.0391 22.289 16.582 23.7773 18.4453 25.0195C19.4766 25.7109 20.2266 26.1328 20.4141 26.1328C20.5781 26.1328 21.1055 25.9687 21.5742 25.7695C24.6094 24.4687 27.3867 23.9531 30.7031 24.0586C33.5977 24.1523 35.5195 24.5508 38.1445 25.6172C38.8594 25.8984 39.5859 26.1328 39.7734 26.1328C39.9844 26.1328 40.5234 25.8398 41.3438 25.2656C45.5156 22.3945 49.4297 20.5781 50.3789 21.082C50.9766 21.4101 51.2109 23.8945 50.8711 26.4843C50.6484 28.125 50.0859 30.7383 49.6055 32.3789C48.9844 34.5 48.9844 34.4765 49.6758 35.6953C49.9922 36.2695 50.3438 36.9258 50.4375 37.1601L50.6133 37.5703L49.2539 37.9687C47.6953 38.414 45.1172 39.6445 44.4844 40.2304C44.0391 40.6523 43.9688 40.9687 44.2031 41.4023C44.5781 42.1172 45.0703 42.1172 46.3594 41.3789C47.9648 40.4531 51.1055 39.3164 51.3398 39.5742C51.5391 39.8086 52.1602 43.2773 52.0195 43.4179C51.9961 43.4414 51.4688 43.3828 50.8594 43.289C49.4648 43.0898 47.1211 42.9492 46.7227 43.0547C46.3945 43.1367 46.0547 43.6523 46.0547 44.0625C46.0547 44.2031 46.1953 44.4609 46.3828 44.6367C46.6875 44.9414 46.7812 44.9648 48.1055 45.0351C49.5 45.1172 51.7734 45.4101 51.9023 45.5273C51.9844 45.6211 51.7148 46.8984 51.4102 47.789C51.1406 48.6211 51.2578 48.5859 49.9805 48.2343C49.0664 47.9765 47.0742 47.9648 46.1133 48.2226C42.6211 49.125 39.8555 52.3945 40.1133 55.3008C40.1602 55.7226 40.2188 56.2148 40.2539 56.3789C40.3359 56.6718 40.3125 56.6836 38.9414 56.9883C35.7305 57.7265 33.7148 57.9375 30.0586 57.9375C26.4023 57.9375 24.3867 57.7265 21.1758 56.9883C19.8047 56.6836 19.7812 56.6718 19.8633 56.3789C19.8984 56.2148 19.957 55.7226 20.0039 55.3008C20.2617 52.3593 17.543 49.1601 14.0039 48.2226C13.0547 47.9648 11.0625 47.9765 10.1367 48.2343C8.89453 48.5742 8.97656 48.5976 8.76562 47.9648C8.50781 47.2265 8.20312 46.0195 8.20312 45.7383C8.20312 45.539 8.33203 45.4804 9 45.375C10.1719 45.164 11.8008 45 12.6328 45C13.3008 45 13.418 44.9648 13.7227 44.6601C13.9102 44.4726 14.0625 44.2031 14.0625 44.0625C14.0625 43.6523 13.7227 43.1367 13.3945 43.0547C12.9961 42.9492 10.6523 43.0898 9.25781 43.289C8.64844 43.3828 8.12109 43.4414 8.09766 43.4179C7.95703 43.2773 8.57812 39.8086 8.77734 39.5742C9.01172 39.3164 12.1523 40.4531 13.7578 41.3789C15.0469 42.1172 15.5391 42.1172 15.9141 41.4023C16.3008 40.6875 15.8906 40.207 14.0977 39.2929C12.7148 38.5781 11.2617 38.0156 10.1133 37.7343L9.50391 37.5937L9.67969 37.1718C9.77344 36.9258 10.1133 36.2812 10.4297 35.7187C10.7578 35.1445 11.0156 34.5468 11.0156 34.3711C11.0156 34.1836 10.8047 33.3047 10.5352 32.4023C10.0078 30.5508 9.45703 27.9258 9.24609 26.2265C9.05859 24.6093 9.15234 22.0898 9.42188 21.5625C9.78516 20.8828 9.82031 20.8711 11.2148 21.2109ZM13.7227 50.2265C16.2773 50.9765 18.3633 53.5195 18 55.4648C17.8477 56.2734 16.5703 57.2929 15.3516 57.5742L15.0586 57.6445V56.1328C15.0586 54.7031 15.0469 54.6093 14.7773 54.3281C14.3789 53.9062 13.7461 53.9062 13.3477 54.3281C13.1016 54.5976 13.0664 54.7383 13.0312 55.875C12.9844 57.5273 12.9609 57.6328 12.4805 57.8554C12.1406 58.0195 12.0352 58.0195 11.707 57.8906C11.168 57.6679 11.0156 57.1875 11.0156 55.7578C11.0156 54.6914 10.9922 54.539 10.7578 54.2929C10.3945 53.9062 9.73828 53.9297 9.36328 54.3281C9.09375 54.6093 9.08203 54.7031 9.08203 56.1328V57.6445L8.78906 57.5742C7.54688 57.2929 6.30469 56.3086 6.14062 55.4883C5.92969 54.3515 6.44531 53.0742 7.54688 51.9609C8.85938 50.6484 10.2656 50.0508 12.0234 50.039C12.6562 50.039 13.3359 50.1093 13.7227 50.2265ZM49.6992 50.2265C51.8438 50.8593 53.8008 52.8281 53.9883 54.5508C54.082 55.3711 53.9414 55.875 53.4258 56.4258C53.0039 56.8828 52.043 57.4101 51.3281 57.5742L51.0352 57.6445V56.1328C51.0352 54.7031 51.0234 54.6093 50.7539 54.3281C50.3906 53.9414 49.7578 53.9179 49.3711 54.2812C49.125 54.5156 49.1016 54.6328 49.1016 55.7461C49.1016 57.1875 48.9492 57.6679 48.4102 57.8906C48.082 58.0195 47.9766 58.0195 47.6367 57.8554C47.1562 57.6328 47.1328 57.5273 47.0859 55.875C47.0508 54.7383 47.0156 54.5976 46.7695 54.3281C46.3711 53.9062 45.7383 53.9062 45.3398 54.3281C45.0703 54.6093 45.0586 54.7031 45.0586 56.1328L45.0703 57.6445L44.7656 57.5742C44.0742 57.4218 42.9961 56.8125 42.6094 56.3437C41.9414 55.5703 41.9062 54.5976 42.4922 53.4023C43.125 52.0781 44.6016 50.8359 46.1367 50.3203C47.1211 49.9804 48.7266 49.9453 49.6992 50.2265Z" fill="#241D50"/>
<path d="M18.0589 35.2853C16.9339 35.5783 16.3948 35.8478 16.1839 36.2228C15.8675 36.7853 16.3479 37.6174 16.9925 37.6174C17.1682 37.6174 17.6135 37.5119 18.0003 37.3713C18.387 37.2306 19.137 37.1017 19.7112 37.0666C21.4221 36.9611 22.2659 37.4299 22.9339 38.8713C23.1448 39.34 23.4261 39.7736 23.555 39.8439C23.9534 40.0549 24.3753 39.9728 24.7503 39.6095C25.1839 39.1759 25.1604 38.8244 24.6565 37.7931C24.0237 36.5158 22.969 35.6017 21.6917 35.2267C20.8128 34.9689 19.1487 34.9924 18.0589 35.2853Z" fill="#241D50"/>
<path d="M37.418 35.215C35.8126 35.7072 34.2891 37.3947 34.1251 38.8478C34.0782 39.2814 34.1133 39.3986 34.3711 39.6564C34.9571 40.2423 35.7891 39.9376 36.0938 39.0236C36.3047 38.3908 37.0782 37.5236 37.6758 37.254C38.3321 36.9494 39.668 36.9611 40.7227 37.2775C42.0586 37.6759 42.3633 37.6876 42.7032 37.3361C43.0079 37.0431 43.0899 36.5744 42.9375 36.1525C42.8321 35.883 42.129 35.5548 41.0625 35.2736C39.9961 35.004 38.1915 34.9689 37.418 35.215Z" fill="#241D50"/>
<path d="M27.4805 41.1795C26.4375 41.6834 25.8984 42.6912 26.1562 43.6873C26.25 44.0858 26.5078 44.4491 27.2227 45.2225C27.75 45.7733 28.3711 46.3592 28.6055 46.5233L29.0508 46.8162L29.0625 48.5741C29.0625 50.1795 29.0391 50.3905 28.8047 50.8592C28.6523 51.1405 28.3945 51.4686 28.2305 51.5975C27.5859 52.0662 26.543 52.0662 25.9102 51.5975C25.2891 51.1287 25.1602 50.8123 25.0781 49.617C25.0078 48.6209 24.9727 48.4569 24.7383 48.2694C24.293 47.9061 23.7188 47.9412 23.3555 48.3514C23.1211 48.6092 23.0859 48.7733 23.0859 49.6873C23.0859 51.0233 23.3789 51.8553 24.1289 52.6522C25.6406 54.2694 28.043 54.41 29.6836 52.9686L30.082 52.6287L30.3398 52.8983C30.7266 53.3084 31.6172 53.7537 32.3672 53.9061C33.6445 54.1639 35.0273 53.6834 35.9883 52.6522C36.7383 51.8553 37.0312 51.0233 37.0312 49.6873C37.0312 48.7733 36.9961 48.6092 36.7734 48.3514C36.3984 47.9412 35.8242 47.9061 35.3789 48.2694C35.1445 48.4569 35.1094 48.6209 35.0391 49.617C34.957 50.8123 34.8281 51.1287 34.207 51.5975C33.5742 52.0662 32.5312 52.0662 31.8867 51.5975C31.7227 51.4686 31.4648 51.1405 31.3242 50.8592C31.0781 50.3905 31.0547 50.1795 31.0547 48.5741L31.0664 46.8162L31.5117 46.5233C31.7461 46.3592 32.3672 45.7733 32.8945 45.2225C33.6094 44.4491 33.8672 44.0858 33.9609 43.6873C34.1836 42.8319 33.8086 41.953 33 41.3905C32.543 41.0741 32.543 41.0741 30.1875 41.0506C28.3477 41.0272 27.75 41.0506 27.4805 41.1795ZM31.9453 43.1366C32.0508 43.3123 30.3398 44.9998 30.0586 44.9998C29.7773 44.9998 28.0664 43.3123 28.1719 43.1366C28.2305 43.0545 28.8281 43.0077 30.0586 43.0077C31.2891 43.0077 31.8867 43.0545 31.9453 43.1366Z" fill="#241D50"/>
</svg>
