<svg width="656" height="93" viewBox="0 0 656 93" fill="none" xmlns="http://www.w3.org/2000/svg">
<g clip-path="url(#clip0_9422_50)">
<path opacity="0.14" d="M166.956 34.423C159.669 30.183 150.946 28.9498 142.535 29.4522C134.124 29.9546 125.902 32.1013 117.772 34.2555C118.767 32.1139 119.04 29.7067 118.551 27.3962C118.061 25.0857 116.836 22.9968 115.06 21.4441C113.214 19.9766 110.941 19.1504 108.585 19.09C106.229 19.0296 103.917 19.7383 101.999 21.1091C98.5034 12.1799 93.2302 2.51232 83.9452 0.388497C76.9701 -1.20247 69.5618 2.28395 64.8205 7.61255C60.0793 12.9411 57.5871 19.9444 55.9079 26.9021C53.689 24.8783 50.9545 23.5091 48.0069 22.946C45.0594 22.383 42.0138 22.648 39.2073 23.7119C36.4008 24.7757 33.9429 26.5968 32.1056 28.9736C30.2684 31.3504 29.1234 34.1902 28.7975 37.1787C24.6413 33.1898 19.7556 29.4217 14.0722 28.7975C6.91469 28.0135 0.980492 33.6466 0.1067 40.5204C-0.873468 48.2621 5.1823 55.9353 11.7015 59.2847C12.1954 59.5435 12.6969 59.7795 13.2212 60.0003H164.646C167.473 58.9964 170.361 58.1727 173.292 57.5339C173.795 57.0916 174.261 56.6078 174.683 56.0876C177.426 52.7001 177.616 47.7141 175.868 43.6948C174.121 39.6755 170.724 36.6153 166.956 34.423Z" fill="url(#paint0_linear_9422_50)"/>
</g>
<g clip-path="url(#clip1_9422_50)">
<path opacity="0.14" d="M650.837 51.2121C647.091 49.092 642.606 48.4755 638.282 48.7267C633.957 48.9779 629.73 50.0512 625.551 51.1283C626.062 50.0575 626.202 48.8539 625.951 47.6987C625.699 46.5434 625.069 45.499 624.156 44.7226C623.207 43.9889 622.038 43.5758 620.827 43.5456C619.616 43.5154 618.427 43.8697 617.441 44.5551C615.644 40.0905 612.933 35.2567 608.159 34.1948C604.573 33.3993 600.764 35.1425 598.327 37.8068C595.889 40.4711 594.608 43.9728 593.745 47.4516C592.604 46.4397 591.198 45.7551 589.682 45.4736C588.167 45.192 586.601 45.3246 585.158 45.8565C583.715 46.3884 582.452 47.299 581.507 48.4874C580.563 49.6758 579.974 51.0957 579.806 52.5899C577.67 50.5955 575.158 48.7114 572.236 48.3993C568.556 48.0073 565.505 50.8238 565.056 54.2608C564.552 58.1316 567.665 61.9682 571.017 63.6429C571.271 63.7723 571.529 63.8903 571.798 64.0007H649.649C651.103 63.4988 652.588 63.0869 654.095 62.7675C654.353 62.5464 654.593 62.3045 654.81 62.0443C656.22 60.3506 656.318 57.8576 655.419 55.8479C654.521 53.8383 652.774 52.3082 650.837 51.2121Z" fill="url(#paint1_linear_9422_50)"/>
</g>
<g clip-path="url(#clip2_9422_50)">
<path opacity="0.14" d="M504.758 77.228C500.23 74.6133 494.809 73.8528 489.582 74.1626C484.354 74.4724 479.245 75.7962 474.193 77.1247C474.811 75.804 474.98 74.3196 474.676 72.8948C474.372 71.4699 473.611 70.1818 472.507 69.2243C471.359 68.3194 469.947 67.8099 468.483 67.7726C467.019 67.7354 465.582 68.1724 464.39 69.0177C462.218 63.5114 458.94 57.5497 453.17 56.24C448.835 55.2589 444.231 57.4089 441.285 60.6948C438.338 63.9808 436.789 68.2995 435.746 72.59C434.367 71.342 432.667 70.4977 430.836 70.1505C429.004 69.8033 427.111 69.9667 425.367 70.6227C423.623 71.2788 422.095 72.4018 420.953 73.8675C419.812 75.3332 419.1 77.0844 418.897 78.9273C416.315 76.4675 413.278 74.1438 409.746 73.7589C405.298 73.2754 401.61 76.7491 401.067 80.988C400.458 85.7621 404.221 90.4939 408.273 92.5593C408.58 92.7189 408.891 92.8645 409.217 93.0006H503.323C505.08 92.3816 506.875 91.8736 508.697 91.4797C509.009 91.2069 509.298 90.9086 509.561 90.5878C511.265 88.4988 511.383 85.4241 510.297 82.9455C509.211 80.467 507.101 78.5799 504.758 77.228Z" fill="url(#paint2_linear_9422_50)"/>
</g>
<defs>
<linearGradient id="paint0_linear_9422_50" x1="0.000325018" y1="30.0003" x2="177" y2="30.0003" gradientUnits="userSpaceOnUse">
<stop stop-color="#81CCE3"/>
<stop offset="0.23" stop-color="#68C1D7"/>
<stop offset="0.72" stop-color="#27A4B9"/>
<stop offset="1" stop-color="#0093A7"/>
</linearGradient>
<linearGradient id="paint1_linear_9422_50" x1="565.001" y1="49.0007" x2="656.001" y2="49.0007" gradientUnits="userSpaceOnUse">
<stop stop-color="#81CCE3"/>
<stop offset="0.23" stop-color="#68C1D7"/>
<stop offset="0.72" stop-color="#27A4B9"/>
<stop offset="1" stop-color="#0093A7"/>
</linearGradient>
<linearGradient id="paint2_linear_9422_50" x1="401.001" y1="74.5006" x2="511.001" y2="74.5006" gradientUnits="userSpaceOnUse">
<stop stop-color="#81CCE3"/>
<stop offset="0.23" stop-color="#68C1D7"/>
<stop offset="0.72" stop-color="#27A4B9"/>
<stop offset="1" stop-color="#0093A7"/>
</linearGradient>
<clipPath id="clip0_9422_50">
<rect width="177" height="60" fill="white"/>
</clipPath>
<clipPath id="clip1_9422_50">
<rect width="91" height="30" fill="white" transform="translate(565 34)"/>
</clipPath>
<clipPath id="clip2_9422_50">
<rect width="110" height="37" fill="white" transform="translate(401 56)"/>
</clipPath>
</defs>
</svg>
