<svg width="986" height="667" viewBox="0 0 986 667" fill="none" xmlns="http://www.w3.org/2000/svg">
<g clip-path="url(#clip0_9420_48)">
<path d="M929.446 561.404C937.467 543.284 959.221 535.442 970.262 518.992C985.001 497.017 976.004 466.248 958.987 446.42C941.969 426.591 918.46 413.786 898.86 396.579C879.26 379.373 862.695 354.3 867.416 328.26C871.2 307.347 888.982 290.312 909.37 285.005C929.758 279.699 951.926 285.169 969.169 297.077C998.671 317.444 1013.12 353.356 1023.94 387.847C1030.59 409.01 1036.75 430.93 1046 450.922V667H955.491C948.557 648.792 941.626 630.584 934.697 612.376C928.471 596.043 922.268 577.541 929.446 561.404Z" fill="url(#paint0_linear_9420_48)"/>
<path d="M929.531 351.506L933.55 347.769C1035.72 459.093 1034.54 592.797 1025.87 667H1020.41C1029 593.741 1030.39 461.449 929.531 351.506Z" fill="white"/>
<path d="M1028.11 633.203L960.93 566.094L964.792 562.153L1026.88 624.198C1032.34 614.295 1039.28 601.763 1046 589.551V600.827C1037.62 616.02 1030.58 628.755 1029.87 630.035L1028.11 633.203Z" fill="white"/>
<path d="M1001.62 458.671L997.812 380.926L1003.27 380.582L1007.82 473.865L940.361 398.514L944.426 394.784L1001.62 458.671Z" fill="white"/>
<path d="M943.795 648.646C930.242 654.202 883.106 671.893 888.193 646.906C892.594 625.236 923.172 635.911 938.567 642.817C926.688 629.103 915.511 614.797 905.078 599.953C887.374 609.551 820.95 643.231 824.493 606.117C827.778 571.743 880.539 587.077 901.177 594.412C895.434 586.25 889.824 578.025 884.269 569.925C878.807 561.997 873.423 554.068 867.883 546.218C865.095 542.254 862.234 538.246 859.3 534.193C845.131 549.34 793.758 601.162 785.425 564.923C777.435 530.042 835.838 529.16 856.132 529.878C843.282 512.507 828.917 494.887 812.61 479.07C800.906 491.742 745.913 548.934 737.307 511.329C729.067 475.378 791.394 475.542 809.777 476.362C797.462 464.568 783.851 454.206 769.204 445.476C764.655 442.807 760.012 440.388 755.323 438.203C746.787 451.469 719.665 490.541 709.693 467.45C700.751 446.732 732.531 438.273 748.847 435.355C732.57 428.525 715.234 424.565 697.607 423.649C692.793 434.73 677.32 467.06 667.13 450.961C658.828 437.93 676.641 428.355 688.892 423.579C675.03 423.731 661.31 426.39 648.396 431.429C638.377 440.794 618.27 457.181 615.266 441.621C612.34 426.404 634.242 425.015 646.36 425.374C660.372 419.98 675.258 417.216 690.273 417.219C677.835 409.041 655.684 392.303 671.039 385.584C687.643 378.311 694.798 406.092 696.975 417.344C716.562 418.247 735.817 422.744 753.778 430.61C745.351 415.627 724.846 375.354 749.198 377.617C774.533 379.958 762.462 420.388 758.257 432.631C763.04 434.871 767.776 437.313 772.411 440.052C787.194 448.855 800.949 459.28 813.421 471.133C810.113 448.886 802.131 379.178 834.948 395.526C868.757 412.358 828.386 462.011 817.205 474.746C833.224 490.306 847.37 507.521 860.042 524.54C856.616 500.521 849.859 434.886 881.85 450.774C915.666 467.622 875.272 517.283 864.099 530.01C867.22 534.256 870.232 538.467 873.134 542.644C878.659 550.51 884.058 558.462 889.52 566.414C894.982 574.365 900.443 582.372 906.038 590.339C902.605 566.265 895.933 500.818 927.885 516.713C961.772 533.584 921.151 583.402 910.072 596.02C921.526 612.079 933.558 627.858 946.744 642.474C944.637 627.53 939.269 578.189 962.107 589.832C985.734 601.888 956.333 636.769 948.976 644.932C952.463 648.717 955.998 652.423 959.689 656.021C963.122 659.392 967.156 663.122 971.665 667H962.123C959.782 664.885 957.504 662.739 955.225 660.508C951.309 656.653 947.498 652.699 943.795 648.646Z" fill="#2F296C"/>
<path d="M996.735 638.408C1008.11 644.089 1003.47 656.824 997.117 667H984.063C982.869 652.017 983.447 631.767 996.735 638.408Z" fill="#2F296C"/>
<path d="M711.316 602.832C743.533 582.216 788.655 573.288 826.724 582.653C864.176 591.845 890.315 616.207 914.519 639.485L943.1 666.992H659.865C668.058 642.45 685.598 619.329 711.316 602.832Z" fill="url(#paint1_linear_9420_48)"/>
<path d="M751.795 625.298C763.398 618.587 776.92 615.934 791.963 617.417C837.562 621.888 883.254 647.413 912.412 667H903.002C874.179 648.319 831.998 625.852 790.886 621.818C777.404 620.499 765.38 622.84 755.104 628.787C740.435 637.261 730.791 652.072 724.307 667.023H718.346C725.157 650.948 735.543 634.702 751.795 625.298Z" fill="white"/>
</g>
<g clip-path="url(#clip1_9420_48)">
<path d="M541.406 333.573H517.037V513.269H541.406V333.573Z" fill="url(#paint2_linear_9420_48)"/>
<path d="M612.287 218.658H577.955V516.934H612.287V218.658Z" fill="url(#paint3_linear_9420_48)"/>
<path d="M641.381 497.37H487.931C478.006 497.37 469.961 505.423 469.961 515.357V520.947C469.961 530.88 478.006 538.934 487.931 538.934H641.381C651.305 538.934 659.35 530.88 659.35 520.947V515.357C659.35 505.423 651.305 497.37 641.381 497.37Z" fill="#241D50"/>
<path d="M465.563 373.908H663.763C664.493 373.908 665.217 374.052 665.892 374.331C666.567 374.611 667.179 375.022 667.696 375.539C668.213 376.056 668.622 376.669 668.902 377.345C669.181 378.021 669.325 378.744 669.325 379.476V389.133C669.325 390.606 668.74 392.02 667.7 393.062C666.658 394.104 665.246 394.689 663.774 394.689H465.551C464.08 394.689 462.667 394.104 461.626 393.062C460.585 392.02 460 390.606 460 389.133V379.476C460 378.744 460.144 378.021 460.423 377.345C460.703 376.669 461.113 376.056 461.629 375.539C462.146 375.022 462.759 374.611 463.434 374.331C464.109 374.052 464.832 373.908 465.563 373.908Z" fill="url(#paint4_linear_9420_48)"/>
<path d="M644.228 206H546.969C541.712 206 537.451 210.265 537.451 215.526V218.473C537.451 223.735 541.712 228 546.969 228H644.228C649.484 228 653.744 223.735 653.744 218.473V215.526C653.744 210.265 649.484 206 644.228 206Z" fill="#241D50"/>
<path d="M551.772 319.24C551.79 324.135 550.488 328.944 548.002 333.16H509.401C506.92 328.942 505.618 324.134 505.631 319.24C505.631 305.179 515.952 293.771 528.696 293.771C541.44 293.771 551.772 305.179 551.772 319.24Z" fill="#353063"/>
<path d="M554.455 271.76H501.589C498.947 271.76 496.331 272.282 493.891 273.295C491.451 274.308 489.235 275.793 487.368 277.665C485.503 279.537 484.024 281.759 483.017 284.203C482.01 286.647 481.495 289.267 481.5 291.911V315.27C481.5 320.603 483.617 325.718 487.384 329.489C491.151 333.259 496.261 335.378 501.589 335.378H554.455C559.783 335.378 564.893 333.259 568.66 329.489C572.427 325.718 574.544 320.603 574.544 315.27V291.911C574.549 289.267 574.034 286.647 573.027 284.203C572.02 281.759 570.541 279.537 568.675 277.665C566.809 275.793 564.593 274.308 562.152 273.295C559.712 272.282 557.097 271.76 554.455 271.76ZM548.001 333.16H509.4C506.92 328.942 505.617 324.134 505.631 319.24C505.631 305.179 515.952 293.771 528.695 293.771C541.44 293.771 551.772 305.179 551.772 319.24C551.79 324.135 550.488 328.944 548.001 333.16Z" fill="#241D50"/>
<path d="M741.4 479.668C742.371 476.457 740.403 459.301 701.576 451.378C662.748 443.455 619.259 437.472 591.076 442.297C558.218 447.983 555.233 475.14 559.215 486.459C563.197 497.777 731.443 512.458 741.4 479.668Z" fill="url(#paint5_linear_9420_48)"/>
<path d="M604.276 462.564C634.85 468.204 682.301 492.257 716.837 475.405C762.882 452.934 755.724 522.492 735.253 533.195C714.783 543.898 583.734 546.671 567.443 535.333C552.09 524.63 549.713 486.287 561.282 467.912C569.569 454.8 597.033 461.227 604.276 462.564Z" fill="url(#paint6_linear_9420_48)"/>
<path d="M668.791 431.336C650.44 432.891 615.614 437.624 615.614 437.624C607.69 438.372 612.629 460.572 634.136 470.97C655.643 481.369 690.575 486.234 701.748 466.019C712.921 445.805 687.135 429.774 668.791 431.336Z" fill="white"/>
<path d="M691.012 520.07C671.169 514.874 702.185 490.735 705.176 467.78C708.167 444.825 692.385 448.856 692.385 448.856C705.493 464.669 674.688 489.775 666.025 505.376C657.361 520.977 681.285 535.399 696.473 535.558C711.66 535.717 710.861 525.266 691.012 520.07Z" fill="white"/>
<path d="M615.984 503.125C626.107 508.751 617.635 478.139 630.716 472.493C640.165 468.409 631.653 456.197 631.653 456.197C631.653 456.197 592.826 490.258 615.984 503.125Z" fill="white"/>
<path fill-rule="evenodd" clip-rule="evenodd" d="M635.239 421.189C635.311 420.865 630.577 411.969 628.167 407.461C628.025 407.197 627.817 406.974 627.562 406.815C627.308 406.656 627.018 406.566 626.718 406.554C626.419 406.542 626.122 406.608 625.855 406.747C625.59 406.885 625.364 407.09 625.202 407.342L614.874 423.228C611.665 424.26 600.585 428.271 596.972 436.605C596.022 435.943 589.227 437.108 585.318 437.836C585.024 437.891 584.75 438.019 584.521 438.21C584.292 438.401 584.115 438.647 584.008 438.925C583.9 439.204 583.864 439.505 583.905 439.801C583.946 440.097 584.062 440.377 584.241 440.616L591.419 450.319C591.419 450.319 590.924 451.524 594.509 456.369C597.6 460.552 602.433 464.312 617.674 462.67C630.366 460.029 658.35 439.649 635.239 421.189Z" fill="white"/>
<path d="M623.96 443.72C623.898 443.711 623.834 443.716 623.772 443.733C623.711 443.75 623.653 443.779 623.604 443.819C623.554 443.858 623.513 443.907 623.482 443.963C623.451 444.019 623.432 444.08 623.426 444.144C623.426 444.183 622.977 448.115 620.996 448.962C620.131 449.34 619.015 449.081 617.773 448.188C617.666 448.077 617.524 448.006 617.37 447.989C617.267 447.984 617.166 448.012 617.08 448.069C616.993 448.126 616.928 448.208 616.893 448.306C616.857 448.402 616.854 448.508 616.882 448.607C616.911 448.707 616.972 448.793 617.053 448.856L617.159 448.929C617.41 449.22 617.971 450.299 617.681 450.955C617.443 451.497 616.525 451.703 615.099 451.524C614.973 451.509 614.846 451.544 614.746 451.622C614.646 451.701 614.581 451.814 614.564 451.941C614.549 452.068 614.584 452.196 614.662 452.297C614.74 452.398 614.854 452.466 614.98 452.484C615.529 452.545 616.082 452.545 616.631 452.484C616.966 452.473 617.295 452.392 617.597 452.245C617.899 452.097 618.165 451.888 618.381 451.63C618.56 451.35 618.675 451.033 618.714 450.703C618.754 450.373 618.719 450.038 618.612 449.723C619.042 449.931 619.512 450.046 619.989 450.06C620.467 450.075 620.943 449.99 621.385 449.809C623.875 448.704 624.363 444.402 624.383 444.216C624.389 444.095 624.348 443.977 624.27 443.884C624.192 443.792 624.081 443.733 623.96 443.72Z" fill="#2A2460"/>
<path fill-rule="evenodd" clip-rule="evenodd" d="M615.304 445.606C615.211 445.606 619.114 439.808 617.12 448.459C617.12 448.426 608.714 447.063 615.304 445.606Z" fill="url(#paint7_linear_9420_48)"/>
<path opacity="0.43" fill-rule="evenodd" clip-rule="evenodd" d="M631.113 438.736C639.037 428.741 648.104 426.822 648.718 426.736C638.727 426.411 631.113 438.736 631.113 438.736Z" fill="#2A2460"/>
<path opacity="0.43" fill-rule="evenodd" clip-rule="evenodd" d="M631.812 439.457C641.922 432.653 650.764 433.54 651.345 433.659C642.259 430.442 631.812 439.457 631.812 439.457Z" fill="#2A2460"/>
<path opacity="0.43" fill-rule="evenodd" clip-rule="evenodd" d="M595.765 464.007C595.699 464.007 598.769 457.931 607.479 454.43C607.506 454.43 597.6 457.104 595.765 464.007Z" fill="#2A2460"/>
<path opacity="0.43" fill-rule="evenodd" clip-rule="evenodd" d="M599.918 467.231C599.865 467.27 600.902 460.777 607.842 455.058C607.822 455.058 599.581 460.347 599.918 467.231Z" fill="#2A2460"/>
<path opacity="0.13" fill-rule="evenodd" clip-rule="evenodd" d="M626.866 411.042C624.436 411.32 620.771 420.838 620.771 420.838C624.042 419.847 627.532 419.847 630.802 420.838C630.802 420.838 629.296 410.771 626.866 411.042Z" fill="#2A2460"/>
<path opacity="0.13" fill-rule="evenodd" clip-rule="evenodd" d="M588.891 440.172C587.478 441.092 592.113 445.309 592.113 445.309C592.113 445.309 592.774 441.066 595.64 439.603C595.62 439.603 590.298 439.259 588.891 440.172Z" fill="#2A2460"/>
<path fill-rule="evenodd" clip-rule="evenodd" d="M304.404 413.796V414.041C304.428 414.004 304.439 413.962 304.439 413.918C304.439 413.875 304.428 413.832 304.404 413.796Z" fill="#241D50"/>
<path fill-rule="evenodd" clip-rule="evenodd" d="M304.384 414.041C303.123 415.927 271.156 410.427 271.156 410.427C271.156 410.427 253.604 440.801 268.442 473.307C278.611 494.487 287.149 508.308 285.895 532.163C276.247 534.148 277.046 541.125 283.141 540.847C284.283 540.847 289.85 540.946 290.636 540.88C298.078 540.218 293.277 509.771 291.54 500.253C291.171 498.492 291.019 497.426 291.019 497.426C291.019 497.426 291.223 498.479 291.54 500.253C293.02 507.255 297.965 525.345 310.69 531.964C309.746 531.441 304.813 531.772 301.445 533.347C295.06 536.326 290.695 541.833 304.602 540.847C321.929 541.244 338.616 540.814 338.616 540.814C338.616 540.814 384.509 516.171 345.027 475.703C325.059 455.237 299.9 466.787 304.384 414.041Z" fill="#241D50"/>
<path fill-rule="evenodd" clip-rule="evenodd" d="M291.541 500.279C291.224 498.505 291.02 497.453 291.02 497.453C291.02 497.453 291.171 498.518 291.541 500.279Z" fill="#241D50"/>
<path d="M389.975 424.168C368.614 430.787 362.38 462.703 358.207 508.619C357.612 515.119 354.608 534.77 334.164 539.98C334.237 540.145 334.303 540.304 334.369 540.469C362.73 543.117 374.986 516.482 376.729 493.124C379.892 458.341 384.29 435.142 403.05 441.165C411.212 444.786 415.57 416.655 389.975 424.168Z" fill="#2A2460"/>
<path fill-rule="evenodd" clip-rule="evenodd" d="M325.891 388.531C320.384 389.16 310.842 390.411 309.825 391.655C301.618 381.992 285.188 381.164 280.467 381.138L260.202 364.101C259.882 363.83 259.498 363.647 259.086 363.571C258.675 363.495 258.252 363.528 257.857 363.666C257.462 363.805 257.11 364.044 256.835 364.36C256.561 364.676 256.374 365.06 256.292 365.471C254.906 372.474 252.198 386.287 252.423 386.698C229.093 420.759 274.749 436.578 292.749 434.923C313.781 430.892 318.7 423.896 321.144 417.052C323.963 409.109 322.814 407.706 322.814 407.706L328.46 391.821C328.603 391.428 328.643 391.005 328.578 390.593C328.512 390.18 328.343 389.791 328.086 389.462C327.829 389.133 327.493 388.875 327.109 388.712C326.725 388.549 326.306 388.487 325.891 388.531Z" fill="#2A2460"/>
<path d="M291.672 418.978C289.843 419.806 288.535 419.905 287.994 419.276C287.333 418.522 287.657 416.854 287.875 416.357L287.981 416.218C288.07 416.102 288.118 415.96 288.118 415.814C288.118 415.668 288.07 415.527 287.981 415.411C287.898 415.287 287.776 415.195 287.635 415.149C287.493 415.104 287.341 415.107 287.201 415.159C287.009 415.249 286.851 415.4 286.752 415.589C285.432 417.304 284.065 418.091 282.79 417.939C279.759 417.602 277.56 412.578 277.56 412.512C277.525 412.43 277.475 412.357 277.413 412.295C277.349 412.233 277.275 412.184 277.193 412.152C277.111 412.118 277.024 412.102 276.935 412.103C276.847 412.104 276.76 412.122 276.679 412.158C276.598 412.192 276.524 412.243 276.463 412.306C276.401 412.369 276.353 412.444 276.32 412.526C276.287 412.608 276.271 412.696 276.272 412.784C276.273 412.872 276.291 412.96 276.326 413.041C276.425 413.279 278.835 418.826 282.605 419.283C283.268 419.344 283.937 419.266 284.569 419.052C285.2 418.839 285.78 418.496 286.27 418.045C286.258 418.508 286.349 418.968 286.536 419.392C286.723 419.816 287.003 420.192 287.353 420.494C287.746 420.751 288.189 420.922 288.651 420.996C289.114 421.07 289.588 421.045 290.041 420.924C290.795 420.767 291.528 420.523 292.226 420.196C292.308 420.162 292.382 420.111 292.444 420.047C292.505 419.984 292.554 419.908 292.586 419.826C292.618 419.743 292.633 419.654 292.63 419.565C292.627 419.477 292.607 419.39 292.57 419.309C292.534 419.227 292.483 419.152 292.417 419.091C292.353 419.029 292.275 418.982 292.191 418.951C292.108 418.919 292.018 418.906 291.929 418.911C291.839 418.915 291.752 418.939 291.672 418.978Z" fill="white"/>
<path fill-rule="evenodd" clip-rule="evenodd" d="M288.985 411.115C289.117 411.115 281.543 404.926 287.717 415.662C287.717 415.662 298.395 410.413 288.985 411.115Z" fill="url(#paint8_linear_9420_48)"/>
<path fill-rule="evenodd" clip-rule="evenodd" d="M236.699 399.598C237.544 399.433 250.408 398.327 265.094 408.441C265.094 408.441 249.919 395.117 236.699 399.598Z" fill="white"/>
<path fill-rule="evenodd" clip-rule="evenodd" d="M236 409.924C236.726 409.52 248.183 404.721 264.447 409.692C264.447 409.692 246.829 401.921 236 409.924Z" fill="white"/>
<path fill-rule="evenodd" clip-rule="evenodd" d="M303.037 419.753C316.092 420.871 322.675 427.768 322.576 427.762C317.347 419.283 303.037 419.753 303.037 419.753Z" fill="white"/>
<path fill-rule="evenodd" clip-rule="evenodd" d="M302.832 420.732C314.408 425.538 318.422 433.798 318.337 433.765C315.999 424.426 302.832 420.732 302.832 420.732Z" fill="white"/>
<path opacity="0.21" fill-rule="evenodd" clip-rule="evenodd" d="M259.515 369.713C256.154 370.342 258.234 384.408 258.234 384.408C262.196 381.75 266.852 380.323 271.619 380.304C271.619 380.304 262.87 369.091 259.515 369.713Z" fill="white"/>
<path opacity="0.21" fill-rule="evenodd" clip-rule="evenodd" d="M322.075 393.118C319.823 392.456 312.83 395.104 312.83 395.104C317.248 395.885 319.856 401.292 319.856 401.292C319.856 401.292 324.333 393.767 322.075 393.118Z" fill="white"/>
<path d="M447.742 539.668C441.733 539.668 435.598 537.828 430.342 535.916L428.453 535.221C420.1 532.143 411.456 528.966 403.202 531.143C400.519 531.95 397.926 533.03 395.463 534.367C393.911 535.141 392.313 535.935 390.669 536.611C386.707 538.226 381.015 539.569 376.234 536.822C376.094 536.743 375.971 536.636 375.872 536.509C375.774 536.382 375.701 536.236 375.658 536.08C375.616 535.925 375.605 535.763 375.625 535.602C375.645 535.442 375.697 535.288 375.777 535.148C375.857 535.008 375.963 534.886 376.091 534.787C376.218 534.688 376.364 534.616 376.519 534.575C376.675 534.533 376.837 534.522 376.997 534.543C377.156 534.564 377.31 534.617 377.449 534.698C381.583 537.074 386.925 535.492 389.745 534.34C391.303 533.678 392.861 532.924 394.367 532.176C396.98 530.763 399.73 529.624 402.575 528.774C411.575 526.397 420.582 529.714 429.292 532.924L431.174 533.586C439.375 536.577 449.835 539.397 457.917 534.631C458.057 534.536 458.213 534.471 458.379 534.439C458.544 534.407 458.714 534.41 458.878 534.447C459.043 534.483 459.198 534.554 459.334 534.653C459.47 534.753 459.584 534.879 459.669 535.025C459.754 535.17 459.809 535.331 459.829 535.499C459.849 535.666 459.836 535.836 459.787 535.998C459.74 536.16 459.659 536.31 459.551 536.439C459.443 536.568 459.309 536.674 459.159 536.75C455.686 538.739 451.741 539.747 447.742 539.668Z" fill="url(#paint9_linear_9420_48)"/>
<path d="M476.048 532.868C485.638 523.255 485.638 507.669 476.048 498.056C466.457 488.443 450.909 488.443 441.318 498.056C431.727 507.669 431.727 523.255 441.318 532.868C450.909 542.482 466.457 542.482 476.048 532.868Z" fill="url(#paint10_linear_9420_48)"/>
<path d="M61.5234 513.841C61.5234 513.841 97.7757 500.921 149.235 512.948C96.3494 531.295 65.5251 513.907 61.5234 513.841Z" fill="url(#paint11_linear_9420_48)"/>
<path d="M56.993 538.934H155.574C156.18 538.226 156.59 537.37 156.76 536.454C156.93 535.536 156.856 534.59 156.545 533.711L149.235 512.948C149.235 512.948 121.732 522.102 61.5229 513.841L55.078 533.036C54.7255 534.095 54.7213 535.24 55.066 536.301C55.4107 537.363 56.0862 538.286 56.993 538.934Z" fill="url(#paint12_linear_9420_48)"/>
<path opacity="0.42" d="M677.85 576H322.554C321.421 575.996 320.336 575.542 319.535 574.736C318.735 573.93 318.283 572.837 318.279 571.698C318.283 570.558 318.735 569.466 319.535 568.66C320.336 567.853 321.421 567.399 322.554 567.395H677.85C678.986 567.399 680.069 567.854 680.868 568.66C681.667 569.466 682.122 570.558 682.122 571.698C682.122 572.837 681.667 573.93 680.868 574.735C680.069 575.541 678.986 575.996 677.85 576Z" fill="url(#paint13_linear_9420_48)"/>
<path d="M829.378 547.538H4.61938C3.4133 547.55 2.25125 547.072 1.38612 546.207C0.520998 545.342 0.0228173 544.159 0 542.918C0.0164688 541.671 0.511861 540.483 1.37768 539.612C2.24349 538.741 3.40916 538.259 4.61938 538.272H829.378C830.586 538.263 831.748 538.746 832.613 539.617C833.478 540.487 833.967 541.674 833.987 542.918C833.96 544.157 833.465 545.337 832.607 546.201C831.742 547.067 830.586 547.547 829.378 547.538Z" fill="url(#paint14_linear_9420_48)"/>
</g>
<g clip-path="url(#clip2_9420_48)">
<path opacity="0.14" d="M991.423 39.0126C983.025 34.2072 972.972 32.8096 963.277 33.379C953.583 33.9484 944.108 36.3813 934.737 38.8228C935.883 36.3956 936.198 33.6675 935.634 31.0489C935.07 28.4303 933.659 26.0629 931.611 24.3031C929.483 22.6401 926.864 21.7037 924.149 21.6352C921.433 21.5667 918.769 22.3699 916.557 23.9235C912.529 13.8038 906.451 2.84715 895.75 0.440146C887.711 -1.36295 879.173 2.58833 873.708 8.62741C868.244 14.6665 865.371 22.6036 863.436 30.4889C860.879 28.1952 857.727 26.6435 854.33 26.0053C850.933 25.3672 847.422 25.6676 844.188 26.8733C840.953 28.079 838.12 30.1429 836.003 32.8366C833.885 35.5303 832.566 38.7488 832.19 42.1357C827.4 37.615 821.769 33.3445 815.218 32.6371C806.969 31.7485 800.13 38.1326 799.123 45.923C797.993 54.6969 804.973 63.3932 812.486 67.1892C813.055 67.4825 813.633 67.75 814.238 68.0002H988.761C992.02 66.8625 995.348 65.9289 998.727 65.2049C999.306 64.7037 999.842 64.1553 1000.33 63.5658C1003.49 59.7266 1003.71 54.0758 1001.7 49.5206C999.681 44.9654 995.767 41.4972 991.423 39.0126Z" fill="url(#paint15_linear_9420_48)"/>
</g>
<defs>
<linearGradient id="paint0_linear_9420_48" x1="1073.55" y1="475.004" x2="866.596" y2="475.004" gradientUnits="userSpaceOnUse">
<stop stop-color="#82CDE4"/>
<stop offset="0.23" stop-color="#69C2D8"/>
<stop offset="0.72" stop-color="#28A6BA"/>
<stop offset="1" stop-color="#0094A7"/>
</linearGradient>
<linearGradient id="paint1_linear_9420_48" x1="944.41" y1="622.981" x2="659.389" y2="622.981" gradientUnits="userSpaceOnUse">
<stop stop-color="#E71A80"/>
<stop offset="1" stop-color="#EC6588"/>
</linearGradient>
<linearGradient id="paint2_linear_9420_48" x1="517.037" y1="423.421" x2="541.406" y2="423.421" gradientUnits="userSpaceOnUse">
<stop stop-color="#82CDE4"/>
<stop offset="0.23" stop-color="#69C2D8"/>
<stop offset="0.72" stop-color="#28A6BA"/>
<stop offset="1" stop-color="#0094A7"/>
</linearGradient>
<linearGradient id="paint3_linear_9420_48" x1="578.199" y1="396.957" x2="612.537" y2="396.957" gradientUnits="userSpaceOnUse">
<stop stop-color="#7BCBE2"/>
<stop offset="1" stop-color="#0096AB"/>
</linearGradient>
<linearGradient id="paint4_linear_9420_48" x1="460" y1="374.122" x2="669.325" y2="374.122" gradientUnits="userSpaceOnUse">
<stop stop-color="#80CDE4"/>
<stop offset="1" stop-color="#0095A9"/>
</linearGradient>
<linearGradient id="paint5_linear_9420_48" x1="557.841" y1="470.156" x2="741.572" y2="470.156" gradientUnits="userSpaceOnUse">
<stop stop-color="#E71A80"/>
<stop offset="1" stop-color="#EC6588"/>
</linearGradient>
<linearGradient id="paint6_linear_9420_48" x1="554.019" y1="501.219" x2="751.167" y2="501.219" gradientUnits="userSpaceOnUse">
<stop stop-color="#EC6588"/>
<stop offset="1" stop-color="#E71A80"/>
</linearGradient>
<linearGradient id="paint7_linear_9420_48" x1="-10211.4" y1="2452.67" x2="-10250.1" y2="2464.33" gradientUnits="userSpaceOnUse">
<stop stop-color="#EC6588"/>
<stop offset="1" stop-color="#E71A80"/>
</linearGradient>
<linearGradient id="paint8_linear_9420_48" x1="285.294" y1="412.498" x2="292.861" y2="412.498" gradientUnits="userSpaceOnUse">
<stop stop-color="#EC6588"/>
<stop offset="1" stop-color="#E71A80"/>
</linearGradient>
<linearGradient id="paint9_linear_9420_48" x1="18188.8" y1="3539.7" x2="28922.2" y2="3539.7" gradientUnits="userSpaceOnUse">
<stop stop-color="#EC6588"/>
<stop offset="1" stop-color="#E71A80"/>
</linearGradient>
<linearGradient id="paint10_linear_9420_48" x1="434.132" y1="515.462" x2="483.24" y2="515.462" gradientUnits="userSpaceOnUse">
<stop stop-color="#E71A80"/>
<stop offset="1" stop-color="#EC6588"/>
</linearGradient>
<linearGradient id="paint11_linear_9420_48" x1="61.5084" y1="513.877" x2="149.168" y2="515.626" gradientUnits="userSpaceOnUse">
<stop stop-color="#82CDE4"/>
<stop offset="0.23" stop-color="#69C2D8"/>
<stop offset="0.72" stop-color="#28A6BA"/>
<stop offset="1" stop-color="#0094A7"/>
</linearGradient>
<linearGradient id="paint12_linear_9420_48" x1="54.9287" y1="525.115" x2="156.964" y2="527.15" gradientUnits="userSpaceOnUse">
<stop stop-color="#0094A7"/>
<stop offset="0.28" stop-color="#28A6BA"/>
<stop offset="0.77" stop-color="#69C2D8"/>
<stop offset="1" stop-color="#82CDE4"/>
</linearGradient>
<linearGradient id="paint13_linear_9420_48" x1="318.279" y1="571.698" x2="682.122" y2="571.698" gradientUnits="userSpaceOnUse">
<stop stop-color="#EC6588"/>
<stop offset="1" stop-color="#E71A80"/>
</linearGradient>
<linearGradient id="paint14_linear_9420_48" x1="0" y1="542.907" x2="834" y2="542.907" gradientUnits="userSpaceOnUse">
<stop stop-color="#A775B0"/>
<stop offset="1" stop-color="#7E468E"/>
</linearGradient>
<linearGradient id="paint15_linear_9420_48" x1="799" y1="34.0002" x2="1003" y2="34.0002" gradientUnits="userSpaceOnUse">
<stop stop-color="#81CCE3"/>
<stop offset="0.23" stop-color="#68C1D7"/>
<stop offset="0.72" stop-color="#27A4B9"/>
<stop offset="1" stop-color="#0093A7"/>
</linearGradient>
<clipPath id="clip0_9420_48">
<rect width="431" height="384" fill="white" transform="translate(615 283)"/>
</clipPath>
<clipPath id="clip1_9420_48">
<rect width="834" height="370" fill="white" transform="translate(0 206)"/>
</clipPath>
<clipPath id="clip2_9420_48">
<rect width="204" height="68" fill="white" transform="translate(799)"/>
</clipPath>
</defs>
</svg>
